# xmcd
#
# Track frame offsets:
#       182
#       15817
#       29870
#       44852
#       60940
#       74287
#       88345
#       103817
#       117870
#       131235
#       146932
#       161040
#       175230
#       189720
#       204602
#       220732
#       236642
#       251272
#       266987
#       279720
#
# Disc length: 3892 seconds
#
# Revision: 2
# Processed by: cddbd v1.5.2PL0 Copyright (c) Steve Scherf et al.
# Submitted via: FreeDbEdit v0.1
#
DISCID=3f0f3214
DTITLE=Bessie Smith - 1923
DYEAR=1900
DGENRE=
TTITLE0=Down Hearted Blues
TTITLE1=Gulf Coast Blues
TTITLE2=Aggravatin' Papa
TTITLE3=Beale Street Mama
TTITLE4=Baby Won't You Please Come Home
TTITLE5=Oh Daddy (You Won't Have No Mama at All
TTITLE6=Tain't Nobody's Bizness If I Do
TTITLE7=Keeps on A-Rainin' (Papa, He Can't Make No Time)
TTITLE8=Mama's Got the Blues
TTITLE9=Outside of That
TTITLE10=Bleeding Hearted Blues
TTITLE11=Lady Luck Blues
TTITLE12=Yodling Blues
TTITLE13=Midnight Blues
TTITLE14=If You Don't, I Know Who Will
TTITLE15=Nobody in Town Can Bake a Sweet Jelly Roll Like Mine
TTITLE16=Jail House Blues
TTITLE17=St. Louis Blues
TTITLE18=Sam Jones Blues
TTITLE19=Graveyard Dream Blues
EXTD=1990
EXTT0=
EXTT1=
EXTT2=
EXTT3=
EXTT4=
EXTT5=
EXTT6=
EXTT7=
EXTT8=
EXTT9=
EXTT10=
EXTT11=
EXTT12=
EXTT13=
EXTT14=
EXTT15=
EXTT16=
EXTT17=
EXTT18=
EXTT19=
PLAYORDER=
